<?xml version="1.0" standalone="no"?>
<!DOCTYPE svg PUBLIC "-//W3C//DTD SVG 20010904//EN"
 "http://www.w3.org/TR/2001/REC-SVG-20010904/DTD/svg10.dtd">
<svg version="1.0" xmlns="http://www.w3.org/2000/svg"
 width="127.000000pt" height="127.000000pt" viewBox="0 0 127.000000 127.000000"
 preserveAspectRatio="xMidYMid meet">
<metadata>
Created by potrace 1.11, written by Peter Selinger 2001-2013
</metadata>
<g transform="translate(0.000000,127.000000) scale(0.100000,-0.100000)"
fill="#000000" stroke="none">
<path d="M780 1187 c0 -16 -11 -31 -37 -48 -37 -24 -38 -26 -35 -79 2 -33 -2
-56 -9 -61 -7 -4 -9 -15 -5 -24 6 -16 8 -16 29 -2 18 12 22 24 22 72 0 50 3
59 22 66 47 17 69 90 30 97 -12 3 -17 -3 -17 -21z"/>
<path d="M167 1103 c-24 -23 15 -75 66 -87 23 -6 27 -11 27 -44 0 -41 23 -82
45 -82 22 0 28 19 11 36 -16 16 -20 28 -16 53 5 38 -11 61 -51 72 -27 9 -44
21 -50 36 -9 23 -20 29 -32 16z"/>
<path d="M456 1074 c-19 -19 -20 -25 -3 -46 16 -22 57 -6 57 21 0 29 -34 45
-54 25z"/>
<path d="M593 948 c-6 -7 -39 -69 -73 -138 -34 -69 -63 -126 -64 -127 -2 -2
-30 -7 -106 -18 -25 -4 -58 -9 -75 -12 -33 -6 -71 -10 -97 -12 -10 -1 -22 -11
-29 -22 -10 -20 -1 -32 99 -133 l111 -111 -20 -105 c-11 -58 -21 -127 -22
-155 -2 -44 1 -50 19 -53 18 -3 178 73 252 119 21 13 32 9 153 -54 147 -78
175 -82 172 -27 -1 37 -10 98 -19 140 -3 14 -7 36 -9 50 -2 14 -6 40 -9 57 -6
31 0 39 103 139 103 100 118 122 95 143 -8 8 -117 28 -194 36 -75 8 -105 17
-115 33 -5 9 -37 71 -70 137 -58 117 -80 141 -102 113z"/>
<path d="M386 933 c-14 -14 -4 -32 23 -41 31 -11 41 -7 41 14 0 13 -55 36 -64
27z"/>
<path d="M942 919 c-25 -22 -29 -49 -9 -49 8 0 21 8 30 18 33 36 13 64 -21 31z"/>
<path d="M1061 899 c-6 -18 -11 -43 -11 -55 0 -13 -3 -24 -7 -25 -5 -1 -28 -3
-53 -5 -33 -2 -51 -10 -68 -30 -13 -14 -21 -31 -19 -38 6 -17 37 -20 37 -2 0
16 28 28 79 32 43 3 61 22 71 76 5 24 10 50 12 58 2 8 -4 15 -13 17 -11 3 -20
-6 -28 -28z"/>
<path d="M791 903 c-25 -20 -20 -48 9 -56 35 -9 55 38 26 62 -10 9 -19 7 -35
-6z"/>
<path d="M181 861 c-19 -12 -6 -43 16 -39 10 2 18 12 18 22 0 22 -14 29 -34
17z"/>
<path d="M313 814 c-6 -17 6 -45 23 -51 5 -2 18 3 28 10 15 11 17 17 7 35 -14
26 -49 29 -58 6z"/>
<path d="M168 429 c-35 -20 -8 -67 32 -54 22 7 27 34 8 53 -14 14 -18 14 -40
1z"/>
<path d="M1076 427 c-23 -17 -13 -57 13 -57 27 0 47 28 35 48 -14 22 -27 24
-48 9z"/>
<path d="M967 360 c-3 -13 1 -21 15 -26 25 -7 42 14 26 33 -15 19 -35 16 -41
-7z"/>
<path d="M215 320 c-10 -16 15 -40 41 -40 32 0 31 28 -2 40 -31 12 -31 12 -39
0z"/>
<path d="M996 263 c-12 -13 -5 -30 17 -40 26 -12 47 -7 47 12 0 14 -54 37 -64
28z"/>
<path d="M197 217 c-3 -8 -2 -20 3 -27 11 -18 42 -4 38 17 -4 22 -34 29 -41
10z"/>
</g>
</svg>
