<?xml version="1.0" standalone="no"?>
<!DOCTYPE svg PUBLIC "-//W3C//DTD SVG 20010904//EN"
 "http://www.w3.org/TR/2001/REC-SVG-20010904/DTD/svg10.dtd">
<svg version="1.0" xmlns="http://www.w3.org/2000/svg"
 width="310.000000pt" height="310.000000pt" viewBox="0 0 310.000000 310.000000"
 preserveAspectRatio="xMidYMid meet">
<metadata>
Created by potrace 1.14, written by Peter Selinger 2001-2017
</metadata>
<g transform="translate(0.000000,310.000000) scale(0.100000,-0.100000)"
fill="#000000" stroke="none">
<path d="M1923 2928 c-5 -7 -10 -30 -10 -51 -1 -47 -18 -66 -88 -102 -100 -50
-123 -101 -90 -195 23 -65 20 -112 -10 -140 -30 -28 -32 -56 -5 -65 71 -23
126 110 85 208 -24 57 -19 83 18 111 19 15 37 26 41 26 3 0 24 12 45 26 46 30
71 76 71 131 0 54 -33 83 -57 51z"/>
<path d="M422 2688 c-17 -17 -15 -64 4 -104 19 -41 62 -68 129 -84 28 -7 61
-19 74 -27 22 -14 23 -20 18 -81 -6 -73 13 -150 44 -178 10 -9 33 -17 51 -17
27 -2 34 2 36 20 2 14 -5 27 -22 38 -34 23 -46 63 -40 142 4 56 2 73 -14 99
-20 31 -38 40 -147 74 -50 16 -75 37 -75 64 0 22 -26 66 -39 66 -4 0 -12 -5
-19 -12z"/>
<path d="M1115 2610 c-39 -43 -9 -110 50 -110 18 0 39 8 48 18 22 25 21 75 -1
95 -25 23 -75 21 -97 -3z"/>
<path d="M1461 2313 c-12 -5 -321 -617 -321 -637 0 -14 88 2 122 21 24 15 56
70 164 285 74 147 134 276 134 287 0 40 -51 63 -99 44z"/>
<path d="M944 2272 c-19 -13 -23 -39 -9 -59 7 -11 39 -28 69 -38 l56 -19 22
22 c29 28 18 49 -42 80 -45 23 -77 27 -96 14z"/>
<path d="M2285 2233 c-50 -53 -55 -75 -23 -97 20 -14 24 -14 47 1 66 43 97
103 69 131 -22 22 -47 12 -93 -35z"/>
<path d="M2631 2243 c-23 -19 -45 -90 -57 -180 -9 -77 -33 -93 -136 -93 -120
0 -200 -44 -214 -117 -13 -69 34 -77 65 -12 21 45 82 68 179 68 118 1 153 31
172 149 6 31 18 83 27 115 15 51 15 60 1 73 -13 13 -17 13 -37 -3z"/>
<path d="M1925 2195 c-46 -45 -19 -118 43 -118 69 0 99 80 46 122 -35 27 -59
26 -89 -4z"/>
<path d="M447 2094 c-12 -13 -8 -51 8 -64 9 -7 25 -10 40 -6 22 6 26 11 23 39
-3 28 -7 32 -33 35 -17 2 -34 0 -38 -4z"/>
<path d="M440 1549 c-56 -11 -84 -41 -76 -82 4 -22 74 -97 261 -279 285 -280
267 -252 244 -382 -19 -110 -28 -160 -44 -256 -9 -52 -20 -115 -25 -140 -26
-132 -33 -206 -22 -227 17 -31 56 -37 107 -14 l43 19 1 62 c0 33 2 69 5 78 3
10 17 83 30 162 14 80 35 201 46 270 36 207 53 173 -239 463 -138 137 -253
258 -256 270 -3 12 -4 31 -2 42 2 23 -12 26 -73 14z"/>
<path d="M399 1041 c-40 -40 -39 -81 2 -115 37 -31 67 -33 102 -6 49 38 43
106 -12 135 -42 21 -59 19 -92 -14z"/>
<path d="M2620 1028 c-34 -36 -22 -80 27 -107 50 -26 105 35 84 92 -16 42 -77
51 -111 15z"/>
<path d="M2392 904 c-32 -22 -26 -65 10 -78 19 -7 31 -6 42 4 23 18 20 67 -3
80 -25 13 -22 13 -49 -6z"/>
<path d="M535 776 c-27 -20 -12 -44 42 -67 60 -26 87 -22 91 12 2 21 -3 28
-35 42 -61 26 -78 28 -98 13z"/>
<path d="M2437 623 c-20 -19 -4 -43 40 -63 57 -25 87 -23 91 7 3 17 -6 26 -44
42 -48 22 -76 26 -87 14z"/>
</g>
</svg>
